<svg xmlns="http://www.w3.org/2000/svg" fill="none" viewBox="0 0 2000 2000">
    <path fill="#a3edba"
        d="M1916.67 125H583.332a83.329 83.329 0 00-58.924 24.408A83.329 83.329 0 00500 208.332V562.5l750 218.75 750-218.75V208.332a83.322 83.322 0 00-24.41-58.924A83.327 83.327 0 001916.67 125z" />
    <path fill="#6699a2" d="M2000 562.5H500V1000l750 218.75L2000 1000V562.5z" />
    <path fill="#77758c" d="M2000 1000H500v437.5l750 218.75 750-218.75V1000z" />
    <path fill="#31416b"
        d="M2000 1437.5H500v354.17c0 22.1 8.779 43.29 24.407 58.92a83.324 83.324 0 0058.924 24.41H1916.67c22.1 0 43.29-8.78 58.92-24.41a83.32 83.32 0 0024.41-58.92V1437.5z" />
    <path fill="#000"
        d="M1041.66 437.5H500V1625h541.66a83.61 83.61 0 0058.86-24.48 83.61 83.61 0 0024.48-58.86V520.832a83.618 83.618 0 00-24.48-58.854 83.584 83.584 0 00-58.86-24.478z"
        opacity=".1" />
    <path fill="#000"
        d="M979.164 500H500v1187.5h479.164a83.608 83.608 0 0058.856-24.48 83.61 83.61 0 0024.48-58.86V583.332a83.618 83.618 0 00-24.48-58.854A83.582 83.582 0 00979.164 500z"
        opacity=".2" />
    <path fill="#000"
        d="M979.164 500H500v1062.5h479.164a83.608 83.608 0 0058.856-24.48 83.61 83.61 0 0024.48-58.86V583.332a83.618 83.618 0 00-24.48-58.854A83.582 83.582 0 00979.164 500z"
        opacity=".2" />
    <path fill="#000"
        d="M916.664 500H500v1062.5h416.664a83.624 83.624 0 0058.856-24.48 83.572 83.572 0 0024.48-58.86V583.332A83.576 83.576 0 00916.664 500z"
        opacity=".2" />
    <path fill="#31416b"
        d="M916.669 500H83.333C37.31 500 0 537.31 0 583.333v833.337c0 46.02 37.31 83.33 83.333 83.33H916.67c46.023 0 83.331-37.31 83.331-83.33V583.333C1000 537.31 962.692 500 916.669 500z" />
    <path fill="#fff"
        d="M746.863 1312.5h-112.5l-131.25-431.25-137.5 431.25h-112.5l-125-625h112.5l87.5 437.5 131.25-425h93.75l125 425 87.5-437.5h106.25l-125 625z" />
</svg>